<svg width="42" height="42" viewBox="0 0 42 42" fill="none" xmlns="http://www.w3.org/2000/svg">
<path d="M0 6C0 2.68629 2.68629 0 6 0H36C39.3137 0 42 2.68629 42 6V36C42 39.3137 39.3137 42 36 42H6C2.68629 42 0 39.3137 0 36V6Z" fill="#6172F3" fill-opacity="0.16"/>
<ellipse cx="17.75" cy="15.5833" rx="4.33333" ry="4.33333" stroke="#6172F3" stroke-width="1.5" stroke-linecap="round" stroke-linejoin="round"/>
<path d="M11.25 30.75V28.5833C11.25 26.1901 13.1901 24.25 15.5833 24.25H19.9167C22.3099 24.25 24.25 26.1901 24.25 28.5833V30.75" stroke="#6172F3" stroke-width="1.5" stroke-linecap="round" stroke-linejoin="round"/>
<path d="M25.3333 11.3907C27.2507 11.8817 28.5918 13.6094 28.5918 15.5887C28.5918 17.5679 27.2507 19.2956 25.3333 19.7866" stroke="#6172F3" stroke-width="1.5" stroke-linecap="round" stroke-linejoin="round"/>
<path d="M30.75 30.7499V28.5832C30.7387 26.6165 29.4043 24.904 27.5 24.4124" stroke="#6172F3" stroke-width="1.5" stroke-linecap="round" stroke-linejoin="round"/>
</svg>
